<svg width="24" height="24" viewBox="0 0 24 24" fill="none" xmlns="http://www.w3.org/2000/svg">
<path d="M22.836 7.42321C22.2432 6.02161 21.396 4.76641 20.316 3.68641C19.236 2.60641 17.9784 1.75921 16.5792 1.16641C15.1272 0.552005 13.5864 0.240005 12 0.240005C10.4136 0.240005 8.87281 0.552005 7.42321 1.16401C6.02161 1.75681 4.76401 2.60401 3.68641 3.68401C2.60641 4.76401 1.75921 6.02161 1.16641 7.42081C0.552005 8.87281 0.240005 10.4136 0.240005 12C0.240005 13.5864 0.552005 15.1272 1.16401 16.5768C1.75681 17.9784 2.60401 19.2336 3.68401 20.3136C4.76401 21.3936 6.02161 22.2408 7.42081 22.8336C8.87281 23.448 10.4136 23.76 12 23.76C13.5864 23.76 15.1272 23.448 16.5768 22.836C17.9784 22.2432 19.236 21.396 20.3136 20.316C21.3936 19.236 22.2408 17.9784 22.8336 16.5792C23.448 15.1272 23.76 13.5864 23.76 12C23.76 10.4136 23.448 8.87281 22.836 7.42321ZM12 22.14C6.41041 22.14 1.86001 17.592 1.86001 12C1.86001 6.40801 6.41041 1.86001 12 1.86001C17.5896 1.86001 22.14 6.40801 22.14 12C22.14 17.592 17.5896 22.14 12 22.14ZM15.6648 7.06801L11.8968 10.8432L8.12161 7.07521C7.79521 6.74881 7.26481 6.74881 6.93841 7.07521C6.61201 7.40161 6.61201 7.93201 6.93841 8.25841L10.7136 12.0264L6.94561 15.8016C6.61921 16.128 6.61921 16.6584 6.94801 16.9848C7.27441 17.3112 7.80481 17.3112 8.13121 16.9848L11.8992 13.2096L15.6744 16.9776C16.0008 17.304 16.5312 17.304 16.8576 16.9776C17.184 16.6512 17.1816 16.1208 16.8552 15.7944L13.08 12.0264L16.848 8.25121C17.1744 7.92481 17.1744 7.39441 16.8456 7.06801C16.5192 6.74161 15.9912 6.74161 15.6648 7.06801Z" fill="black"/>
</svg>
